<svg width="303" height="303" viewBox="0 0 303 303" fill="none" xmlns="http://www.w3.org/2000/svg">
<circle cx="151.5" cy="151.5" r="151.5" fill="url(#paint0_radial)"/>
<path d="M173.185 209.682C173.685 210.324 174.232 211.017 174.841 211.718C175.443 212.43 176.075 213.181 176.765 213.924C177.458 214.663 178.144 215.459 178.901 216.206C179.651 216.959 180.414 217.725 181.177 218.491C181.97 219.226 182.762 219.962 183.542 220.686C184.313 221.419 185.136 222.072 185.899 222.739C187.449 224.046 188.942 225.216 190.265 226.165C192.891 228.09 194.823 229.152 194.823 229.152C194.823 229.152 193.512 227.38 191.346 224.971C190.271 223.757 188.99 222.374 187.583 220.932C186.873 220.217 186.17 219.448 185.405 218.72C184.653 217.979 183.888 217.227 183.123 216.474C182.344 215.738 181.564 215 180.796 214.275C180.036 213.542 179.246 212.863 178.505 212.181C177.772 211.491 177.021 210.865 176.327 210.254C175.636 209.64 174.957 209.082 174.334 208.565C171.849 206.485 170.033 205.237 170.033 205.237C170.033 205.237 171.166 207.129 173.185 209.682Z" fill="white"/>
<path d="M189.314 229.243C188.035 228.143 186.679 226.959 185.334 225.766C183.936 224.633 182.546 223.491 181.252 222.409C179.917 221.372 178.675 220.399 177.62 219.553C176.526 218.747 175.615 218.073 174.978 217.603C174.32 217.152 173.944 216.894 173.944 216.894C173.944 216.894 174.231 217.248 174.732 217.87C175.259 218.463 176.012 219.312 176.917 220.33C177.864 221.303 178.981 222.426 180.184 223.626C181.433 224.773 182.775 225.986 184.126 227.191C185.534 228.327 186.95 229.453 188.286 230.498C189.666 231.489 190.956 232.407 192.071 233.184C193.224 233.907 194.184 234.512 194.857 234.935C195.551 235.328 195.948 235.552 195.948 235.552C195.948 235.552 195.633 235.223 195.08 234.648C194.512 234.095 193.7 233.306 192.726 232.36C191.719 231.456 190.554 230.389 189.314 229.243Z" fill="white"/>
<path d="M254.789 83.6715C254.707 84.3246 254.596 84.9089 254.499 85.4179C254.466 85.5887 254.435 85.75 254.407 85.902C254.209 86.6538 254.064 87.2036 253.984 87.5106C253.935 87.6938 253.909 87.7909 253.909 87.7909C253.909 87.7909 253.959 87.083 254.045 85.8424C254.051 85.5323 254.061 85.1924 254.07 84.8227C254.078 84.4531 254.084 84.0552 254.086 83.6308C254.075 83.2031 254.062 82.7504 254.037 82.2758C254.012 81.8012 253.976 81.3031 253.921 80.7863C253.894 80.5262 253.862 80.2631 253.826 79.9968C253.752 79.4627 253.658 78.9113 253.545 78.349C253.489 78.0686 253.428 77.7836 253.362 77.4969C253.301 77.2087 253.219 76.9221 253.133 76.6323C253.047 76.3441 252.955 76.0528 252.873 75.7567C252.759 75.4701 252.659 75.1756 252.555 74.8811C252.45 74.5851 252.341 74.2891 252.208 73.9993C251.969 73.4088 251.681 72.8308 251.363 72.2607C251.205 71.9756 251.039 71.6921 250.868 71.4101C250.698 71.1282 250.522 70.8478 250.344 70.5674C249.783 69.7435 249.152 68.9557 248.466 68.2148C248.237 67.9673 248.002 67.7245 247.761 67.488C246.559 66.3039 245.201 65.281 243.781 64.4368C243.212 64.1 242.634 63.7914 242.05 63.511C241.758 63.3716 241.466 63.2385 241.173 63.1132C240.88 62.9864 240.587 62.8689 240.292 62.7592C239.412 62.4287 238.532 62.1687 237.678 61.9525C236.535 61.6675 235.429 61.5249 234.401 61.4169C234.144 61.4028 233.891 61.3887 233.644 61.3793C233.397 61.3699 233.155 61.3636 232.919 61.3605C232.447 61.3542 231.997 61.3636 231.576 61.3981C231.154 61.4247 230.759 61.4638 230.394 61.5124C230.212 61.5359 230.037 61.5609 229.871 61.5891C229.704 61.6173 229.545 61.6455 229.395 61.6753C229.094 61.7364 228.824 61.7912 228.59 61.8398C228.359 61.904 228.163 61.9588 228.004 62.0042C227.923 62.0262 227.853 62.045 227.792 62.0622C227.608 62.1139 227.511 62.1405 227.511 62.1405C227.511 62.1405 227.67 62.0606 227.967 61.9102C228.262 61.7505 228.703 61.5312 229.295 61.3197C229.588 61.2101 229.918 61.0958 230.283 60.9877C230.648 60.8796 231.047 60.7778 231.48 60.6948C231.911 60.5992 232.375 60.524 232.868 60.4677C233.361 60.4113 233.882 60.3737 234.428 60.3517C235.245 60.347 236.12 60.3611 237.028 60.463C237.332 60.4958 237.639 60.5397 237.948 60.5945C238.566 60.701 239.202 60.8248 239.843 60.9861C240.485 61.1474 241.132 61.3432 241.774 61.5954C243.054 62.0904 244.373 62.6605 245.59 63.4563C246.506 64.0421 247.399 64.6952 248.237 65.4189C248.517 65.6585 248.791 65.9076 249.058 66.1645C250.098 67.217 251.036 68.3683 251.838 69.5838C252.031 69.8923 252.215 70.204 252.392 70.5173C252.745 71.1454 253.063 71.7845 253.338 72.4298C253.476 72.7525 253.605 73.0767 253.722 73.401C253.976 74.0416 254.148 74.6994 254.335 75.3322C254.366 75.4951 254.402 75.6565 254.436 75.8147C254.541 76.294 254.653 76.7623 254.714 77.2275C254.814 77.8478 254.881 78.4524 254.924 79.0382C254.966 79.624 254.982 80.1895 254.98 80.7315C254.961 81.275 254.975 81.7919 254.931 82.2837C254.906 82.528 254.881 82.7661 254.858 82.998C254.834 83.2298 254.812 83.4538 254.789 83.6715ZM249.202 88.6023C249.123 88.914 249.064 89.2116 248.993 89.5202C248.923 89.8272 248.841 90.1452 248.719 90.5007L248.09 92.5385L248.01 92.7939L248.005 92.8095L248 92.8252L247.978 92.88L247.956 92.9333L247.776 93.3891L247.416 94.2991C246.987 95.5396 246.343 96.6721 245.778 97.8453C244.968 99.2519 244.092 100.624 243.113 101.918C242.526 102.693 241.903 103.442 241.234 104.153C240.118 105.334 238.942 106.465 237.691 107.508C237.189 107.925 236.676 108.329 236.149 108.717C235.886 108.912 235.619 109.101 235.349 109.286C231.594 111.919 227.409 113.911 223.153 115.496C222.546 115.724 221.936 115.941 221.326 116.153C216.447 117.86 211.5 119.019 206.763 120.028C204.984 120.408 203.231 120.761 201.51 121.099C199.789 121.439 198.1 121.768 196.448 122.1C195.346 122.324 194.261 122.548 193.195 122.782C192.721 122.89 192.251 122.999 191.785 123.112C190.386 123.453 189.022 123.828 187.684 124.268C190.67 121.055 193.766 117.528 196.821 113.741C198.519 111.635 200.204 109.452 201.851 107.196C202.181 106.745 202.509 106.293 202.835 105.835C203.488 104.922 204.134 103.998 204.771 103.064C205.09 102.598 205.406 102.128 205.72 101.655C206.978 99.7641 208.198 97.8343 209.368 95.8686C209.952 94.8865 210.525 93.895 211.084 92.8941C211.642 91.8948 212.186 90.886 212.715 89.8695C214.3 86.8214 215.744 83.7044 217.003 80.5341C217.121 81.1136 217.293 81.701 217.568 82.2805C217.659 82.4748 217.761 82.6674 217.877 82.8585C218.114 83.2736 218.424 83.6636 218.782 84.0114C219.021 84.2416 219.28 84.4515 219.552 84.6363C219.961 84.912 220.4 85.1282 220.841 85.2644C221.428 85.4555 221.994 85.5417 222.526 85.5605C223.058 85.5793 223.558 85.5291 224.013 85.4508C224.699 85.324 225.307 85.1266 225.864 84.8995C226.05 84.8243 226.23 84.7444 226.404 84.6645C227.945 83.8986 229.078 82.9744 229.922 82.0722C230.016 81.972 230.106 81.8717 230.193 81.7715C230.715 81.1747 231.114 80.5967 231.427 80.0924C231.833 79.4048 232.086 78.8362 232.233 78.4414C232.269 78.3428 232.3 78.2551 232.326 78.1799C232.353 78.1047 232.375 78.042 232.393 77.9919C232.429 77.8901 232.447 77.84 232.447 77.84C232.726 77.0458 232.371 76.1452 231.594 75.774C231.386 75.6737 231.167 75.6205 230.95 75.6111C230.842 75.6064 230.734 75.6111 230.628 75.6283C230.204 75.6909 229.809 75.9165 229.541 76.2705C229.475 76.3582 229.415 76.4553 229.366 76.5587L229.281 76.7357C229.281 76.7357 229.221 76.861 229.104 77.1069C229.017 77.2886 228.88 77.5345 228.682 77.8306C228.617 77.9293 228.544 78.0326 228.465 78.1423C227.909 78.8816 226.897 79.931 225.429 80.6876C225.219 80.7957 225 80.8975 224.771 80.9915C224.546 81.0745 224.315 81.1496 224.084 81.2092C223.853 81.2702 223.621 81.3157 223.395 81.3392C223.283 81.3501 223.175 81.3564 223.069 81.3533C222.965 81.3533 222.864 81.3454 222.771 81.3345C222.676 81.3219 222.589 81.3047 222.509 81.2828C222.429 81.2609 222.357 81.2358 222.294 81.206C222.231 81.1747 222.176 81.145 222.126 81.1105C221.977 81.0071 221.877 80.874 221.759 80.6328C221.679 80.4792 221.612 80.2647 221.564 80.0109C221.539 79.8825 221.519 79.7447 221.504 79.599C221.49 79.4533 221.48 79.2998 221.475 79.14C221.422 77.865 221.754 76.1859 222.246 74.5193C222.377 74.1027 222.481 73.7126 222.666 73.2192L222.918 72.5066L223.028 72.2027L223.16 71.9223C223.208 71.8299 223.251 71.7359 223.293 71.6404C223.377 71.4493 223.456 71.2551 223.55 71.0686C223.597 70.9762 223.648 70.8838 223.705 70.7977C223.764 70.71 223.819 70.6223 223.874 70.5314C224.037 70.2636 224.19 69.9847 224.392 69.7388C224.638 69.3958 224.912 69.0669 225.21 68.7552C225.658 68.2868 226.16 67.8561 226.71 67.4676C227.26 67.0792 227.857 66.733 228.491 66.4339C230.183 65.6382 232.148 65.1808 234.223 65.1651C234.997 65.1526 235.782 65.2011 236.568 65.3076C239.97 65.7744 243.369 67.3643 245.812 69.9973C247.131 71.4054 248.174 73.0971 248.882 74.9814C248.984 75.2508 249.078 75.5249 249.166 75.8006C249.341 76.3551 249.488 76.9221 249.611 77.5016C249.974 79.2387 250.096 81.0776 250.015 82.9509L249.877 84.8384L249.587 86.7431C249.512 87.3915 249.338 87.9868 249.202 88.6023ZM244.08 103.855C244.012 103.942 243.812 104.197 243.497 104.601C243.34 104.803 243.154 105.041 242.939 105.314C242.833 105.45 242.72 105.596 242.601 105.749C242.479 105.901 242.351 106.062 242.214 106.231C242.08 106.401 241.939 106.578 241.791 106.761C241.459 107.095 241.101 107.455 240.717 107.84C240.33 108.227 239.918 108.636 239.484 109.07C239.064 109.522 238.526 109.878 238.015 110.317C237.49 110.739 236.945 111.181 236.38 111.637C235.793 112.063 235.155 112.459 234.515 112.892C234.2 113.116 233.873 113.332 233.537 113.542C233.202 113.752 232.857 113.955 232.505 114.157C231.803 114.558 231.073 114.95 230.333 115.354C230.15 115.457 229.962 115.556 229.773 115.65C229.203 115.933 228.611 116.182 228.027 116.468C227.634 116.649 227.241 116.839 226.842 117.019C226.643 117.108 226.441 117.196 226.239 117.28C226.036 117.364 225.831 117.443 225.623 117.517C224.8 117.835 223.971 118.158 223.139 118.479C222.3 118.781 221.448 119.05 220.6 119.337C219.751 119.622 218.895 119.874 218.035 120.101C217.177 120.336 216.326 120.585 215.476 120.803C215.05 120.907 214.625 121.008 214.201 121.109C213.778 121.209 213.357 121.306 212.938 121.4C212.099 121.59 211.268 121.765 210.45 121.925C210.042 122.012 209.637 122.094 209.235 122.171C208.028 122.402 206.851 122.592 205.722 122.783C204.218 123.04 202.789 123.236 201.472 123.422C201.143 123.466 200.821 123.508 200.505 123.551C199.875 123.634 199.273 123.712 198.704 123.786C195.005 124.257 192.673 124.501 192.673 124.501C192.673 124.501 193.008 124.41 193.625 124.244C193.995 124.144 194.467 124.017 195.029 123.865C196.532 123.479 198.692 122.957 201.282 122.379C201.929 122.229 202.602 122.075 203.3 121.917C203.997 121.759 204.717 121.597 205.457 121.428C206.566 121.176 207.72 120.91 208.904 120.625C209.298 120.531 209.695 120.434 210.096 120.335C210.903 120.155 211.714 119.943 212.534 119.726C213.354 119.506 214.182 119.282 215.021 119.072C215.438 118.961 215.855 118.841 216.273 118.718C216.69 118.598 217.108 118.474 217.528 118.353C218.371 118.12 219.208 117.86 220.035 117.572C220.865 117.298 221.706 117.047 222.528 116.76C223.345 116.457 224.157 116.154 224.963 115.854C225.37 115.711 225.766 115.55 226.159 115.385C226.551 115.219 226.938 115.048 227.328 114.889C227.52 114.804 227.714 114.723 227.907 114.643C228.101 114.563 228.295 114.483 228.486 114.403C228.87 114.243 229.249 114.079 229.611 113.889C229.974 113.705 230.337 113.524 230.698 113.347C231.059 113.17 231.417 112.995 231.769 112.82C232.473 112.467 233.155 112.11 233.791 111.712C234.439 111.335 235.07 110.968 235.681 110.613C236.265 110.216 236.831 109.834 237.373 109.466C237.652 109.291 237.916 109.11 238.173 108.929C238.428 108.746 238.673 108.562 238.909 108.379C239.382 108.012 239.821 107.651 240.238 107.317C240.447 107.149 240.651 106.988 240.847 106.831C241.043 106.675 241.232 106.524 241.414 106.379C241.581 106.219 241.741 106.065 241.895 105.917C242.048 105.769 242.194 105.63 242.332 105.497C242.614 105.231 242.866 104.993 243.085 104.786C243.741 104.165 244.105 103.822 244.105 103.822C244.105 103.822 244.095 103.833 244.08 103.855ZM182.911 97.2329C182.048 99.0623 181.132 100.94 180.161 102.865C179.676 103.829 179.177 104.803 178.663 105.79C172.098 118.402 167.161 126.84 163.865 132.126C163.48 131.551 163.121 130.966 162.788 130.375C164.039 128.502 165.574 126.162 167.235 123.43C167.516 122.974 167.8 122.507 168.088 122.031C170.105 118.696 172.31 114.876 174.563 110.772C175.838 108.413 177.189 106.015 178.449 103.492C179.102 102.245 179.737 100.976 180.364 99.6967C180.678 99.0576 180.989 98.4154 181.3 97.7717C181.611 97.1295 181.921 96.4842 182.231 95.8404C183.113 93.884 183.992 91.9261 184.826 89.9697C185.104 89.3166 185.377 88.665 185.644 88.0134C186.184 86.7117 186.698 85.4117 187.189 84.1226C187.68 82.8303 188.147 81.5491 188.594 80.285C189.506 77.7601 190.287 75.2837 190.978 72.9232C191.687 70.5674 192.262 68.3119 192.749 66.2224C192.934 65.4377 193.103 64.678 193.257 63.9418C193.36 63.45 193.456 62.9707 193.546 62.5039C193.637 62.0356 193.721 61.5798 193.8 61.138C193.878 60.6948 193.951 60.2656 194.019 59.849C194.053 59.6406 194.085 59.4355 194.117 59.235C194.212 58.6319 194.296 58.0602 194.37 57.5229C194.446 56.9872 194.511 56.4845 194.569 56.0208C194.684 55.0888 194.757 54.3056 194.805 53.6901C194.821 53.4849 194.834 53.2985 194.845 53.1324C194.856 52.9664 194.866 52.8176 194.875 52.6908C194.901 52.3102 194.914 52.1097 194.914 52.1097C194.914 52.1097 194.846 52.5576 194.7 53.3831C194.652 53.6572 194.594 53.9752 194.528 54.3323C194.44 54.8069 194.336 55.3535 194.215 55.9644C194.186 56.1163 194.155 56.273 194.123 56.4343C194.058 56.7554 193.989 57.0922 193.913 57.443C193.799 57.9709 193.672 58.5301 193.533 59.1206C193.44 59.5153 193.341 59.9226 193.237 60.3423C193.185 60.5522 193.131 60.7653 193.076 60.983C192.967 61.4153 192.851 61.8601 192.731 62.3175C192.429 63.4609 192.093 64.6764 191.723 65.9546C191.575 66.4652 191.421 66.9868 191.26 67.5162C190.779 69.106 190.246 70.7773 189.663 72.5097C189.471 73.0877 189.271 73.6719 189.065 74.2625C188.448 76.034 187.774 77.8587 187.066 79.7227C186.134 82.2132 185.072 84.7491 183.994 87.3242C183.725 87.9679 183.449 88.6117 183.168 89.257C182.326 91.1899 181.44 93.1259 180.551 95.0588C179.335 97.6229 178.131 100.193 176.854 102.679C175.92 104.552 174.976 106.405 174.047 108.213C173.737 108.816 173.428 109.413 173.123 110.003C172.816 110.595 172.511 111.183 172.209 111.764C170.092 115.83 168.087 119.611 166.313 122.897C164.855 125.577 163.573 127.932 162.498 129.846C161.779 128.486 161.229 127.101 160.961 125.745C159.457 118.133 154.691 114.975 150.047 116.062C146.091 116.988 143.953 120.38 143.877 123.571C143.787 127.361 144.332 129.639 145.97 134.517L138.823 132.498C137.081 128.383 136.046 124.91 136.046 124.91L135.838 123.713C133.256 108.606 129.334 75.5265 138.502 49.2385C139.412 46.629 140.32 44.1745 141.183 41.9331C141.43 41.2925 141.673 40.6691 141.911 40.0645C142.507 38.553 143.074 37.1589 143.596 35.9011C145.476 31.376 146.779 28.6302 146.779 28.6302C146.779 28.6302 147.17 28.6615 148.091 28.8197C148.486 28.8871 148.979 28.9779 149.58 29.0985C149.78 29.1392 149.993 29.183 150.217 29.23C150.442 29.2786 150.68 29.3288 150.93 29.3851C151.055 29.4118 151.183 29.44 151.315 29.4697C153.42 29.9428 156.361 30.6789 160.348 31.8161C161.843 32.2437 163.485 32.7262 165.285 33.2744C166.785 33.7302 168.395 34.2314 170.12 34.7812C173.572 35.8792 177.487 37.1746 181.918 38.6986C182.804 39.004 183.711 39.3173 184.638 39.6416C189.741 41.4209 194.167 43.0296 198 44.4737C198.696 44.7353 199.374 44.9922 200.031 45.2444C202.993 46.3768 205.565 47.3996 207.796 48.3159C209.035 48.8266 210.167 49.3028 211.202 49.7476C211.409 49.8353 211.612 49.923 211.811 50.0092C213.803 50.8722 215.407 51.6069 216.686 52.2193C216.814 52.2804 216.939 52.3399 217.06 52.3978C217.303 52.5153 217.533 52.6281 217.75 52.7362C217.968 52.8427 218.174 52.9461 218.367 53.0432C220.402 54.0707 221.135 54.561 221.135 54.561C221.135 54.561 221.128 54.5907 221.115 54.644C221.102 54.6988 221.083 54.7787 221.058 54.8821L146.77 30.8528L197.172 49.7256C197.159 50.0374 197.14 50.407 197.111 50.8315C197.054 51.6805 196.958 52.755 196.798 54.0488C196.637 55.3426 196.413 56.8557 196.1 58.5833C195.943 59.448 195.764 60.3658 195.56 61.337C194.845 64.7344 193.818 68.7834 192.346 73.4558C191.925 74.7919 191.468 76.1781 190.971 77.6144C190.226 79.7681 189.392 82.0378 188.459 84.417C187.214 87.5889 185.792 90.9596 184.168 94.5231C183.761 95.4143 183.343 96.3181 182.911 97.2329ZM223.671 252.053C223.144 252.838 222.401 253.964 221.485 255.297C220.571 256.635 219.489 258.186 218.239 259.796C217.613 260.598 216.957 261.426 216.245 262.233C215.535 263.041 214.779 263.835 213.997 264.609C213.204 265.372 212.367 266.091 211.516 266.766C210.673 267.451 209.769 268.033 208.89 268.58C208.013 269.133 207.105 269.568 206.245 269.965C205.376 270.348 204.534 270.658 203.742 270.89C202.159 271.366 200.8 271.575 199.85 271.651C199.378 271.706 199 271.7 198.747 271.714C198.493 271.722 198.358 271.725 198.358 271.725C198.358 271.725 198.489 271.691 198.735 271.625C198.979 271.554 199.343 271.484 199.793 271.343C200.701 271.095 201.972 270.669 203.429 270.041C204.159 269.726 204.924 269.335 205.723 268.91C206.511 268.464 207.325 267.967 208.138 267.411C208.953 266.857 209.76 266.235 210.561 265.577C210.846 265.342 211.127 265.095 211.407 264.85C210.958 265.034 210.515 265.237 210.049 265.385C209.099 265.717 208.097 265.926 207.14 266.074C206.178 266.233 205.234 266.282 204.334 266.348C203.431 266.414 202.569 266.432 201.754 266.475C200.943 266.528 200.176 266.556 199.479 266.633C198.079 266.769 196.933 267.012 196.149 267.278C195.75 267.396 195.453 267.532 195.246 267.62C195.037 267.706 194.925 267.753 194.925 267.753C194.925 267.753 195.019 267.678 195.195 267.535C195.373 267.394 195.634 267.18 196.006 266.968C196.733 266.517 197.877 266.01 199.307 265.663C200.02 265.475 200.798 265.328 201.621 265.2C202.441 265.073 203.306 264.946 204.188 264.841C205.072 264.733 205.973 264.59 206.867 264.434C207.767 264.276 208.641 264.074 209.492 263.756C209.927 263.627 210.342 263.441 210.766 263.279C211.174 263.084 211.594 262.914 211.984 262.692C212.784 262.283 213.548 261.823 214.261 261.336C215.145 260.723 215.952 260.081 216.688 259.448C216.846 259.27 217.01 259.091 217.162 258.911C218.478 257.396 219.692 255.952 220.767 254.74C221.832 253.518 222.761 252.53 223.427 251.854C224.092 251.176 224.492 250.81 224.492 250.81C224.492 250.81 224.194 251.262 223.671 252.053ZM86.1459 202.778C85.7206 202.485 85.3413 202.176 85.009 201.857C84.3446 201.216 83.8673 200.527 83.584 199.822C83.2304 198.942 83.179 198.036 83.4421 197.17C83.6005 196.652 83.8716 196.146 84.2589 195.67C84.388 195.51 84.53 195.353 84.6847 195.201C86.6977 193.222 90.903 191.851 97.5098 192.211C97.5098 192.211 102.564 187.089 106.517 188.468C106.517 188.468 107.873 188.161 109.946 187.282C110.189 187.558 110.466 187.84 110.775 188.128C110.586 188.215 110.477 188.262 110.477 188.262C110.477 188.262 110.594 188.223 110.801 188.153C111.812 189.094 113.154 190.104 114.707 191.137L108.251 189.144L116.84 192.492C124.028 196.871 133.992 201.284 137.781 202.27C138.968 202.58 140.037 202.399 140.988 201.904L144.994 203.465C145.065 203.544 145.136 203.625 145.206 203.707C145.485 204.036 145.753 204.385 145.996 204.755C146.3 205.215 146.564 205.705 146.76 206.217C146.996 206.831 147.134 207.478 147.127 208.143L99.0082 192.855L149.366 212.01C149.599 212.383 149.824 212.804 150.028 213.282C150.846 215.19 151.335 217.978 150.686 221.961C150.631 222.293 150.57 222.633 150.499 222.98L117.997 213.241L139.553 221.851C137.945 221.29 136.362 220.737 134.851 220.211C134.096 219.946 133.358 219.69 132.644 219.441C130.502 218.693 128.574 218.021 127.021 217.479C126.848 217.42 126.68 217.36 126.517 217.304C125.375 216.906 124.471 216.591 123.879 216.385C123.372 216.208 123.095 216.11 123.095 216.11C123.095 216.11 120.968 215.37 117.722 214.237C117.209 214.059 116.669 213.869 116.105 213.673C115.917 213.608 115.726 213.542 115.532 213.473C114.566 213.136 113.537 212.777 112.464 212.403C110.961 211.88 109.372 211.325 107.745 210.758C101.009 208.409 93.6466 205.84 89.2461 204.307C88.0322 203.882 86.9969 203.362 86.1459 202.778ZM114.379 174.961C115.567 175.638 117.351 176.654 119.532 177.898C121.559 179.054 123.923 180.401 126.455 181.845C127.724 182.566 129.035 183.311 130.367 184.068C131.733 184.834 133.14 185.567 134.608 186.229C136.082 186.876 137.616 187.468 139.271 187.742C139.943 187.849 140.636 187.899 141.326 187.854C141.432 187.904 141.536 187.954 141.637 188.002C141.872 188.223 142.187 188.566 142.489 189.063C142.805 189.574 143.09 190.256 143.248 191.073C143.399 191.889 143.413 192.841 143.188 193.821C142.968 194.8 142.488 195.8 141.745 196.636C141.559 196.849 141.354 197.04 141.156 197.216C141.041 197.308 140.893 197.433 140.801 197.499C140.677 197.589 140.554 197.684 140.426 197.769C139.922 198.118 139.396 198.436 138.852 198.649C138.366 198.849 137.864 198.948 137.348 198.97C136.86 198.752 136.269 198.484 135.601 198.17C134.661 197.725 133.539 197.169 132.414 196.566C131.882 196.276 131.457 195.963 131.282 195.599C131.094 195.252 131.124 194.666 131.325 194.081C131.742 192.893 132.578 191.771 133.538 190.968C134.503 190.151 135.618 189.65 136.629 189.448C137.641 189.237 138.53 189.309 139.129 189.431C139.43 189.494 139.663 189.564 139.819 189.619C139.975 189.675 140.059 189.705 140.059 189.705C140.059 189.705 139.979 189.664 139.83 189.591C139.68 189.519 139.456 189.42 139.159 189.32C138.567 189.124 137.664 188.938 136.569 189.032C135.478 189.118 134.203 189.511 133.033 190.283C131.865 191.055 130.786 192.15 130.082 193.569C129.912 193.931 129.767 194.323 129.696 194.761C129.623 195.173 129.636 195.646 129.773 196.1C129.171 195.757 128.575 195.408 127.987 195.059C127.483 194.753 126.984 194.451 126.487 194.15C126.545 193.494 126.687 192.07 126.942 190.639C127.267 188.689 127.803 186.749 127.803 186.749C127.803 186.749 126.634 188.383 125.624 190.158C125.076 191.099 124.579 192.075 124.233 192.781C123.172 192.122 122.142 191.481 121.165 190.875C120.128 190.217 119.147 189.595 118.242 189.022C116.519 187.915 115.088 186.972 114.062 186.286C113.927 185.709 113.813 185.086 113.737 184.448C113.587 183.164 113.602 181.842 113.71 180.851C113.756 180.354 113.822 179.94 113.873 179.652C113.926 179.363 113.956 179.196 113.956 179.196C113.956 179.196 113.884 179.348 113.758 179.616C113.633 179.883 113.461 180.271 113.283 180.75C112.945 181.626 112.602 182.819 112.391 184.082C112.387 184.065 112.382 184.046 112.378 184.029C111.699 180.757 113.003 177.397 114.379 174.961ZM119.568 159.47C120.861 160.241 124.319 162.308 128.993 165.101C130.49 165.995 132.113 166.963 133.828 167.989C134.686 168.501 135.567 169.028 136.468 169.567C136.92 169.834 137.377 170.105 137.839 170.38C138.304 170.651 138.791 170.936 139.274 171.205C141.214 172.29 143.257 173.374 145.521 174.234C146.638 174.651 147.814 175.021 149.105 175.187C149.194 175.317 149.283 175.458 149.371 175.613C149.69 176.195 149.969 176.974 149.974 177.885C149.988 178.794 149.714 179.806 149.164 180.775C148.623 181.75 147.815 182.682 146.849 183.526C146.181 184.098 145.461 184.672 144.69 185.138C144.088 184.943 143.371 184.732 142.57 184.506C141.454 184.185 140.136 183.841 138.88 183.402C138.564 183.288 138.296 183.186 137.988 183.04C137.908 183.001 137.877 182.99 137.845 182.979C137.811 182.967 137.778 182.951 137.743 182.935C137.676 182.901 137.608 182.86 137.548 182.807C137.425 182.7 137.348 182.541 137.33 182.368C137.319 182.282 137.321 182.191 137.332 182.1C137.339 182.049 137.34 182.019 137.36 181.944C137.378 181.873 137.4 181.798 137.425 181.723C137.523 181.424 137.68 181.065 137.824 180.742C137.972 180.414 138.137 180.096 138.309 179.785C138.657 179.168 139.057 178.598 139.506 178.102C140.396 177.096 141.512 176.448 142.586 176.194C143.658 175.921 144.622 176.034 145.254 176.224C145.572 176.319 145.815 176.426 145.975 176.509C146.135 176.592 146.221 176.637 146.221 176.637C146.221 176.637 146.144 176.579 146 176.468C145.854 176.358 145.63 176.209 145.321 176.054C144.708 175.749 143.714 175.447 142.486 175.541C141.877 175.588 141.213 175.716 140.544 175.984C139.875 176.249 139.218 176.632 138.601 177.115C137.983 177.597 137.411 178.174 136.894 178.806C136.638 179.123 136.39 179.45 136.159 179.79C135.927 180.138 135.713 180.456 135.493 180.86C135.439 180.96 135.387 181.065 135.336 181.173C135.287 181.278 135.226 181.432 135.179 181.565C135.082 181.844 135.013 182.132 134.985 182.426C134.934 182.904 135.015 183.393 135.21 183.834C134.07 183.159 132.948 182.429 131.867 181.676C131.756 181.599 131.648 181.524 131.538 181.447C131.851 180.565 132.417 179.051 133.111 177.561C134.149 175.263 135.478 173.071 135.478 173.071C135.478 173.071 133.605 174.815 131.93 176.805C130.943 177.95 130.035 179.167 129.446 179.987C129.023 179.693 128.599 179.395 128.184 179.107C125.793 177.437 123.562 175.881 121.649 174.546C120.167 173.512 118.88 172.613 117.855 171.897C117.894 171.05 117.974 169.75 118.136 168.439C118.386 166.222 118.868 164.009 118.868 164.009C118.868 164.009 117.731 165.964 116.786 168.057C116.642 168.368 116.503 168.683 116.369 168.992C116.225 167.582 116.271 165.64 117.006 163.425C117.601 161.635 118.589 160.358 119.568 159.47ZM125.988 143.598C126.609 144.356 127.384 145.227 128.35 146.145C129.094 146.844 129.95 147.567 130.964 148.235C131.978 148.896 133.159 149.514 134.542 149.859C135.911 150.213 137.512 150.208 138.936 149.712C139.295 149.596 139.635 149.441 139.967 149.279L140.21 149.148L140.331 149.082L140.424 149.03L140.473 149.001C140.607 148.913 140.718 148.849 140.9 148.72C141.061 148.609 141.213 148.496 141.359 148.379C141.602 148.675 141.883 149.007 142.211 149.369C142.894 150.127 143.768 151.01 144.831 151.959C145.895 152.907 147.152 153.914 148.575 154.94C149.994 155.971 151.584 157.014 153.239 158.121C154.061 158.676 154.91 159.254 155.698 159.879C155.878 160.023 156.119 160.217 156.274 160.364C156.447 160.521 156.606 160.69 156.749 160.87C157.037 161.231 157.259 161.636 157.407 162.073C157.706 162.95 157.701 163.948 157.482 164.938C157.266 165.931 156.85 166.915 156.329 167.851C155.806 168.791 155.173 169.689 154.463 170.528C154.284 170.744 154.115 170.931 153.924 171.141C153.718 171.368 153.553 171.542 153.37 171.709C153.071 171.98 152.763 172.211 152.439 172.381C151.799 172.09 150.82 171.644 149.619 171.095C149.073 170.846 148.481 170.577 147.854 170.29C147.541 170.148 147.219 170 146.891 169.85C146.742 169.783 146.591 169.714 146.44 169.645C146.333 169.592 146.225 169.538 146.117 169.484C146.005 169.435 145.886 169.357 145.809 169.236C145.73 169.115 145.696 168.964 145.696 168.802C145.716 168.351 146.033 167.599 146.35 166.923C146.983 165.56 147.822 164.302 148.85 163.362C149.367 162.897 149.915 162.498 150.491 162.22C151.067 161.935 151.658 161.744 152.219 161.639C153.346 161.426 154.341 161.556 154.99 161.774C155.156 161.824 155.301 161.877 155.423 161.934C155.548 161.984 155.654 162.031 155.734 162.078C155.899 162.166 155.988 162.213 155.988 162.213C155.988 162.213 155.909 162.152 155.759 162.037C155.685 161.978 155.589 161.913 155.471 161.841C155.357 161.765 155.22 161.685 155.059 161.608C154.432 161.276 153.417 160.958 152.153 160.985C151.524 160.999 150.839 161.097 150.135 161.312C149.427 161.52 148.719 161.871 148.043 162.305C146.684 163.184 145.488 164.467 144.531 165.867C144.286 166.222 144.066 166.562 143.839 166.948C143.612 167.347 143.399 167.765 143.247 168.321C143.116 168.826 143.092 169.36 143.191 169.87C142.426 169.413 141.675 168.937 140.94 168.458C140.595 168.234 140.262 168.01 139.927 167.783C139.931 167.765 139.934 167.748 139.939 167.729C140.172 166.764 140.587 165.491 141.146 164.255C141.705 163.019 142.405 161.83 143.002 160.981C143.296 160.552 143.561 160.206 143.75 159.966C143.941 159.727 144.05 159.591 144.05 159.591C144.05 159.591 143.91 159.695 143.666 159.88C143.421 160.067 143.075 160.339 142.676 160.689C141.87 161.376 140.859 162.388 139.953 163.516C139.173 164.49 138.477 165.546 137.967 166.445C137.221 165.936 136.488 165.433 135.774 164.946C134.125 163.817 132.565 162.75 131.126 161.765C127.291 159.141 124.316 157.106 122.751 156.035C122.782 155.833 122.818 155.606 122.863 155.35C123.019 154.436 123.291 153.219 123.649 152.013C124.008 150.808 124.455 149.618 124.836 148.739C125.214 147.859 125.504 147.284 125.504 147.284C125.504 147.284 125.071 147.758 124.46 148.513C123.848 149.267 123.077 150.318 122.374 151.43C121.956 152.092 121.564 152.775 121.223 153.413C121.104 151.977 121.268 150.269 122.077 148.432C122.937 146.476 124.513 144.825 125.988 143.598ZM129.691 135.873C129.835 135.718 130.079 135.521 130.392 135.283C131.026 134.813 132.006 134.241 133.253 133.735C133.881 133.492 134.571 133.26 135.314 133.085C135.365 133.074 135.419 133.065 135.471 133.054C136.387 134.974 137.333 136.567 138.205 137.915C137.868 138.055 137.523 138.183 137.18 138.309C135.611 138.866 133.998 139.374 132.705 140.293C132.067 140.735 131.541 141.247 131.124 141.766C130.906 142.041 130.724 142.32 130.573 142.594C129.816 141.601 129.247 140.688 128.848 140.007C128.595 139.573 128.41 139.227 128.291 138.996C128.235 138.887 128.196 138.808 128.17 138.755C127.4 136.651 127.436 134.625 127.978 132.783C128.01 132.731 128.039 132.682 128.074 132.629C128.61 131.764 129.483 130.671 130.505 129.687C131.411 128.82 132.428 128.044 133.3 127.493C133.889 129.373 134.543 131.038 135.222 132.516C134.438 132.764 133.732 133.082 133.096 133.384C131.866 134.009 130.925 134.672 130.325 135.201C130.029 135.467 129.802 135.685 129.671 135.854C129.533 136.017 129.459 136.103 129.459 136.103C129.459 136.103 129.54 136.023 129.691 135.873ZM135.464 146.754C134.608 146.43 133.81 145.902 133.1 145.31C132.848 145.099 132.611 144.878 132.38 144.654C132.39 144.514 132.396 144.319 132.471 144.067C132.546 143.796 132.682 143.46 132.924 143.091C133.17 142.726 133.509 142.322 133.962 141.947C134.401 141.568 134.967 141.225 135.625 140.884C136.282 140.547 137.027 140.227 137.817 139.867C138.23 139.673 138.658 139.474 139.088 139.242C140.873 141.86 142.112 143.395 141.65 144.654C141.381 144.992 141.098 145.315 140.791 145.595C140.409 145.954 139.955 146.27 139.553 146.48C139.477 146.524 139.312 146.599 139.178 146.665L138.853 146.794C138.62 146.873 138.388 146.95 138.155 146.992C137.226 147.19 136.32 147.082 135.464 146.754ZM132.866 126.022C132.957 126.35 133.048 126.675 133.143 126.992C132.42 127.23 131.58 127.571 130.725 127.997C131.397 127.244 132.127 126.58 132.866 126.022ZM205.004 249.95C202.953 251.709 200.903 253.468 198.98 255.116C198.016 255.936 197.087 256.726 196.139 257.443C195.195 258.156 194.247 258.778 193.319 259.263C192.39 259.75 191.463 260.059 190.626 260.212C189.787 260.361 189.048 260.396 188.447 260.363C187.846 260.317 187.382 260.244 187.072 260.165C186.762 260.097 186.597 260.059 186.597 260.059C186.597 260.059 186.766 260.068 187.083 260.087C187.397 260.112 187.863 260.109 188.442 260.057C189.605 259.984 191.224 259.539 192.883 258.491C193.721 257.98 194.557 257.312 195.406 256.55C196.251 255.794 197.131 254.931 198.075 254.088C199.953 252.389 201.956 250.576 203.96 248.764C206.002 246.994 208.092 245.273 209.901 243.559C210.802 242.696 211.652 241.849 212.415 241.006C213.179 240.165 213.826 239.308 214.369 238.481C215.433 236.818 216.116 235.284 216.436 234.156C216.628 233.6 216.724 233.148 216.794 232.837C216.865 232.527 216.903 232.363 216.903 232.363C216.903 232.363 216.893 232.532 216.873 232.848C216.856 233.166 216.835 233.636 216.735 234.227C216.538 235.397 216.133 237.104 215.135 238.937C214.623 239.836 214.033 240.799 213.31 241.744C212.591 242.688 211.77 243.633 210.86 244.541C209.037 246.36 206.998 248.128 205.004 249.95ZM171.486 171.644C171.672 171.437 171.882 171.174 172.12 170.87C172.364 170.568 172.631 170.223 172.906 169.833C173.477 169.067 174.077 168.126 174.688 167.092C175.284 166.049 175.859 164.899 176.374 163.716C176.578 163.231 176.768 162.739 176.949 162.247C177.112 166.789 176.643 171.119 176.816 174.938C176.938 177.636 177.399 180.423 178.249 183.247C178.244 183.473 178.233 183.726 178.214 184.021C178.198 184.369 178.172 184.759 178.126 185.185C178.055 186.04 177.904 187.033 177.709 188.1C177.5 189.163 177.218 190.292 176.88 191.416C176.528 192.531 176.119 193.637 175.682 194.658C175.232 195.671 174.779 196.614 174.338 197.396C174.127 197.792 173.918 198.146 173.727 198.459C173.54 198.774 173.374 199.047 173.227 199.266C172.938 199.708 172.773 199.962 172.773 199.962C172.773 199.962 172.989 199.75 173.367 199.379C173.56 199.196 173.783 198.964 174.035 198.694C174.293 198.426 174.579 198.121 174.876 197.773C175.489 197.092 176.151 196.249 176.838 195.317C177.511 194.379 178.184 193.337 178.807 192.257C178.932 192.034 179.054 191.81 179.174 191.585C179.106 191.853 179.034 192.122 178.957 192.391C178.584 193.682 178.102 194.957 177.682 195.892C177.267 196.83 176.942 197.44 176.942 197.44C176.942 197.44 177.409 196.934 178.057 196.119C178.709 195.308 179.52 194.168 180.242 192.952C180.68 192.214 181.083 191.452 181.427 190.744C183.35 194.224 185.923 197.695 189.247 201.064C194.886 206.78 206.718 216.927 213.949 223.031L206.132 217.693L214.969 226.721C214.494 227.929 214.204 229.288 213.919 230.643C212.362 238.06 205.384 242.557 200.527 247.304C197.409 250.351 194.723 253.684 191.14 255.291L174.863 239.704L179.434 246.256C175.747 242.315 172.213 238.744 168.934 235.549L168.939 235.552C174.146 228.026 170.467 222 167.93 218.083C167.643 217.616 167.326 217.144 166.968 216.668C166.527 216.081 166.032 215.486 165.478 214.884C164.739 214.084 163.895 213.271 162.938 212.455C162.46 212.046 161.953 211.635 161.417 211.224C160.889 208.553 159.45 203.862 155.693 201.807C154.868 200.594 153.152 197.755 152.037 193.688C152.709 191.495 153.391 189.47 153.962 187.849C154.232 189.166 154.555 190.451 154.919 191.655C155.45 193.309 156.002 194.822 156.582 196.072C156.723 196.386 156.858 196.686 156.987 196.971C157.128 197.25 157.261 197.515 157.388 197.764C157.635 198.264 157.856 198.693 158.061 199.036C158.455 199.728 158.679 200.123 158.679 200.123C158.679 200.123 158.521 199.698 158.244 198.953C158.098 198.585 157.949 198.127 157.786 197.601C157.704 197.339 157.615 197.061 157.522 196.766C157.443 196.469 157.359 196.155 157.271 195.829C156.906 194.531 156.612 192.983 156.363 191.334C156.141 189.675 156.019 187.904 156.005 186.142C156.019 184.376 156.142 182.625 156.358 181.006C156.604 179.389 156.886 177.901 157.237 176.656C157.321 176.344 157.401 176.045 157.477 175.762C157.566 175.481 157.65 175.216 157.73 174.967C157.749 174.905 157.767 174.847 157.785 174.789C160.332 172.092 162.435 168.314 162.321 163.843C162.273 161.975 161.877 160.065 161.259 158.179C161.993 158.577 162.728 158.944 163.436 159.26C164.326 159.645 165.158 159.977 165.887 160.217C166.248 160.344 166.582 160.449 166.88 160.535C167.175 160.626 167.434 160.703 167.65 160.754C168.077 160.867 168.321 160.931 168.321 160.931C168.321 160.931 168.102 160.806 167.719 160.587C167.527 160.482 167.299 160.342 167.039 160.18C166.779 160.02 166.488 159.836 166.179 159.623C165.554 159.215 164.856 158.691 164.133 158.117C163.415 157.531 162.686 156.875 161.992 156.192C161.307 155.499 160.659 154.782 160.088 154.085C159.526 153.382 159.025 152.716 158.634 152.121C158.472 151.887 158.333 151.67 158.205 151.464C158.115 151.258 158.02 151.048 157.913 150.83C157.757 150.481 157.556 150.133 157.358 149.76C156.94 149.03 156.425 148.271 155.863 147.5C155.413 146.883 154.948 146.241 154.487 145.577C155.079 145.547 155.626 145.49 156.076 145.418C156.868 145.296 157.373 145.166 157.373 145.166C157.373 145.166 156.863 145.031 156.142 144.76C155.42 144.494 154.5 144.065 153.662 143.554C153.364 143.373 153.083 143.182 152.813 142.989C152.699 142.799 152.583 142.615 152.47 142.422C151.932 141.499 151.409 140.558 150.892 139.573C150.768 139.335 150.62 139.076 150.516 138.854L150.157 138.129C149.917 137.646 149.677 137.168 149.468 136.68C149.023 135.716 148.637 134.75 148.278 133.813C148.112 133.342 147.948 132.877 147.788 132.422C147.646 131.965 147.507 131.515 147.372 131.08C147.253 130.641 147.139 130.214 147.028 129.8C146.935 129.387 146.844 128.986 146.757 128.6C146.605 127.83 146.487 127.125 146.41 126.502C146.336 125.88 146.29 125.339 146.274 124.904C146.263 124.681 146.259 124.487 146.258 124.321C146.711 121.813 147.778 119.318 150.166 118.518C150.904 118.27 151.581 118.158 152.201 118.158C156.054 118.158 157.703 122.493 157.989 125.664C158.045 126.293 158.26 126.998 158.608 127.78C158.491 127.803 158.374 127.822 158.259 127.836C158.148 127.85 158.063 127.858 158.001 127.861C157.938 127.863 157.906 127.867 157.853 127.856C157.743 127.841 157.597 127.742 157.461 127.49C157.323 127.239 157.233 126.917 157.124 126.503C156.907 125.69 156.623 124.907 156.298 124.15C155.643 122.639 154.801 121.24 153.831 119.965C154.508 121.417 155.018 122.929 155.319 124.459C155.467 125.222 155.569 125.989 155.604 126.751C155.624 127.122 155.635 127.595 155.77 128.095C155.838 128.348 155.939 128.618 156.103 128.884C156.264 129.149 156.498 129.41 156.778 129.606C156.998 129.763 157.265 129.886 157.513 129.96C157.761 130.035 157.996 130.071 158.202 130.093C158.594 130.135 158.975 130.145 159.373 130.118C159.532 130.109 159.691 130.087 159.852 130.063C162.144 133.738 166.36 138.766 171.52 145.62C174.256 149.256 175.659 152.981 176.354 156.649C176.313 157.564 176.187 158.626 176.014 159.763C175.823 160.902 175.551 162.106 175.215 163.301C174.861 164.49 174.444 165.663 173.991 166.744C173.522 167.815 173.049 168.808 172.582 169.626C172.359 170.043 172.137 170.414 171.934 170.738C171.736 171.069 171.559 171.354 171.402 171.581C171.094 172.04 170.919 172.301 170.919 172.301C170.919 172.301 171.125 172.063 171.486 171.644ZM146.391 135.748C147.663 139.419 148.986 142.738 149.656 144.079C149.824 144.416 150.05 144.823 150.31 145.271C147.021 143.559 144.774 142.182 143.686 141.484C141.791 138.924 140.143 135.602 138.868 132.606L146.391 135.748ZM129.147 81.842C129.125 82.3996 129.106 82.9557 129.089 83.5117C129.056 84.6223 129.034 85.7281 129.022 86.8245C129.01 87.9225 129.01 89.0127 129.018 90.0935C129.035 92.2566 129.089 94.3837 129.175 96.4638C129.282 99.0639 129.438 101.59 129.627 104.02C128.853 102.844 128.017 101.702 127.134 100.566C126.84 100.187 126.54 99.8079 126.235 99.4289C125.89 99.006 125.54 98.5831 125.186 98.157C123.415 96.0284 121.538 93.8558 119.627 91.5956C118.862 90.6918 118.093 89.7724 117.322 88.8357C116.936 88.3689 116.55 87.899 116.163 87.4229C115.39 86.4737 114.617 85.5072 113.849 84.522C111.93 82.0581 110.051 79.4768 108.327 76.7451C107.98 76.2 107.639 75.6502 107.304 75.0942C106.968 74.5397 106.64 73.9774 106.319 73.4119C105.676 72.2779 105.063 71.1235 104.49 69.9472C103.918 68.7724 103.385 67.5757 102.903 66.3587C102.42 65.1416 101.988 63.9042 101.615 62.6464C101.423 62.0199 101.252 61.3887 101.101 60.7543C100.798 59.484 100.572 58.198 100.406 56.9073C100.323 56.262 100.255 55.6151 100.2 54.9682C100.173 54.644 100.152 54.3182 100.137 53.9939C100.122 53.6697 100.113 53.3455 100.11 53.0212C100.104 52.3712 100.12 51.7228 100.155 51.0759C100.225 49.7789 100.37 48.4867 100.563 47.2023C100.851 45.932 101.05 44.6444 101.485 43.4054L101.769 42.4688L101.911 42.0005L101.944 41.8877L101.956 41.8595L102.053 41.6104L102.826 39.6196C102.889 39.4442 102.954 39.2797 103.02 39.1262C103.219 38.6626 103.431 38.2757 103.63 37.834C103.906 37.267 104.14 36.6937 104.484 36.1392L105.441 34.468L105.974 33.6848L106.507 32.9031C107.976 30.8794 109.69 29.1283 111.619 27.8313C112.34 27.3442 113.091 26.9228 113.862 26.5672C114.119 26.4498 114.379 26.3386 114.64 26.2352C115.686 25.8233 116.764 25.5335 117.854 25.3721C118.674 25.2468 119.499 25.1967 120.318 25.2155C123.873 25.2954 127.343 26.666 129.934 28.7946C130.54 29.2833 131.095 29.8112 131.596 30.3672C132.765 31.6673 133.639 33.1271 134.177 34.6261C134.638 35.9105 134.851 37.2231 134.79 38.4903C134.792 38.5968 134.786 38.7017 134.778 38.8067C134.769 38.9116 134.757 39.0166 134.744 39.1216C134.716 39.3299 134.684 39.5382 134.669 39.7465C134.65 39.9548 134.601 40.1584 134.548 40.3605C134.522 40.4607 134.494 40.561 134.468 40.6628C134.441 40.7631 134.417 40.8633 134.397 40.9651L134.326 41.2674L134.222 41.5744L133.976 42.2887C133.936 42.414 133.896 42.5315 133.855 42.6427C133.774 42.8667 133.694 43.0672 133.615 43.2661C133.575 43.3663 133.536 43.4665 133.497 43.5683C133.415 43.7688 133.332 43.9694 133.246 44.1667C132.735 45.354 132.153 46.4567 131.537 47.279C131.435 47.4153 131.331 47.5453 131.227 47.6659C131.124 47.7881 131.021 47.904 130.919 48.0074C130.612 48.3238 130.314 48.5525 130.077 48.659C129.996 48.6981 129.925 48.7279 129.858 48.7514C129.791 48.7734 129.73 48.789 129.671 48.7984C129.611 48.8062 129.553 48.8078 129.493 48.8047C129.432 48.8 129.37 48.7906 129.301 48.7749C129.234 48.7592 129.161 48.7341 129.085 48.7013C128.857 48.6026 128.598 48.4288 128.355 48.1938C128.113 47.9557 127.89 47.6706 127.689 47.3699C127.622 47.2712 127.557 47.1694 127.495 47.066C127.134 46.4191 126.882 45.7691 126.71 45.1535C126.652 44.9483 126.604 44.7462 126.563 44.5504C126.481 44.1589 126.431 43.7876 126.402 43.4477C126.373 43.1094 126.367 42.8024 126.374 42.5393C126.379 42.403 126.388 42.2761 126.398 42.1586C126.417 41.9221 126.444 41.7201 126.473 41.554C126.488 41.4695 126.502 41.3943 126.517 41.3285C126.548 41.1969 126.57 41.0967 126.586 41.0309C126.601 40.9636 126.609 40.9291 126.609 40.9291L126.654 40.7302C126.677 40.6284 126.691 40.5249 126.694 40.4231C126.719 39.7073 126.278 39.0291 125.565 38.7847C125.456 38.7471 125.345 38.7221 125.235 38.708C124.575 38.6234 123.922 38.943 123.585 39.5178C123.528 39.6134 123.48 39.7152 123.443 39.8248C123.443 39.8248 123.373 40.03 123.236 40.4294C123.172 40.6299 123.1 40.8805 123.031 41.1797C122.962 41.4789 122.897 41.8282 122.842 42.2229C122.657 43.7971 122.633 46.1575 123.932 48.9268C124.278 49.6144 124.705 50.3287 125.314 51.0304C125.931 51.7196 126.758 52.426 127.916 52.8568C128.488 53.0808 129.147 53.1904 129.811 53.1826C130.474 53.1748 131.142 53.0526 131.733 52.816C132.152 52.661 132.533 52.4683 132.886 52.2506C133.238 52.0345 133.561 51.7932 133.863 51.5395C130.905 61.3354 129.551 71.7954 129.147 81.842ZM122.094 99.8643C121.972 99.7375 121.772 99.5291 121.497 99.2441C121.428 99.1736 121.355 99.0968 121.277 99.017C120.657 98.3669 119.749 97.4161 118.592 96.2053C118.449 96.0518 118.303 95.8952 118.153 95.7339C115.895 93.317 112.772 90.0073 109.405 85.7751C108.51 84.6489 107.594 83.4553 106.678 82.196C106.219 81.5663 105.762 80.9178 105.306 80.2537C104.623 79.2591 103.945 78.2237 103.281 77.1523C102.395 75.7223 101.536 74.2249 100.721 72.657C100.517 72.2654 100.316 71.8706 100.119 71.4697C99.7235 70.6693 99.341 69.8516 98.9739 69.0168C97.5166 65.6805 96.3839 62.0465 95.7317 58.2497C95.5048 56.8228 95.3517 55.3723 95.2839 53.9125C95.1707 51.4784 95.293 49.0161 95.7024 46.5977C95.7439 46.3549 95.7856 46.1136 95.8284 45.8724C95.8713 45.6297 95.9159 45.3885 95.9631 45.1488C96.0578 44.668 96.1643 44.1902 96.2934 43.7172C96.3974 43.2379 96.5284 42.768 96.6703 42.2997C96.7419 42.0663 96.8159 41.8344 96.8913 41.601C96.9665 41.3692 97.0429 41.1374 97.1182 40.9056C97.4223 39.9846 97.7595 39.0777 98.1265 38.1833C98.3101 37.7369 98.501 37.2936 98.6993 36.8535C98.8968 36.4133 99.1019 35.9779 99.3128 35.5456C99.7351 34.6825 100.189 33.8383 100.676 33.0159C100.92 32.6056 101.171 32.1998 101.431 31.8004C101.95 31.0047 102.502 30.2341 103.086 29.4963C103.379 29.1267 103.679 28.7664 103.987 28.4156C104.605 27.7123 105.255 27.0466 105.937 26.4216C107.292 25.1685 108.775 24.0925 110.329 23.2247C111.883 22.3554 113.51 21.696 115.154 21.2793C116.796 20.8533 118.438 20.6512 120.025 20.6356C121.613 20.6215 123.148 20.7953 124.577 21.1195C126.365 21.5331 127.995 22.1581 129.43 22.913C130.29 23.3657 131.081 23.8653 131.794 24.3932C132.992 25.2656 133.974 26.2148 134.762 27.1515C135.235 27.7138 135.639 28.2714 135.979 28.8056C136.205 29.1643 136.401 29.512 136.572 29.8456C136.744 30.1808 136.891 30.5004 137.016 30.8026C137.143 31.1049 137.248 31.3884 137.338 31.6516C137.427 31.9132 137.5 32.1544 137.562 32.369C137.589 32.4786 137.616 32.582 137.639 32.6776C137.663 32.7747 137.684 32.864 137.704 32.947C137.742 33.113 137.771 33.2556 137.789 33.3699C137.832 33.597 137.854 33.7145 137.854 33.7145C137.854 33.7145 137.825 33.5986 137.769 33.373C137.72 33.1475 137.62 32.8186 137.485 32.3925C137.376 32.0777 137.236 31.708 137.053 31.2976C136.749 30.6147 136.326 29.8206 135.727 28.9732C134.782 27.6168 133.385 26.1271 131.47 24.8537C130.995 24.5341 130.488 24.2271 129.951 23.9405C128.34 23.0774 126.463 22.3883 124.394 22.0045C123.019 21.7429 121.554 21.6255 120.05 21.6866C119.674 21.7022 119.296 21.7288 118.916 21.7664C118.155 21.8416 117.389 21.9638 116.622 22.1377C116.239 22.2238 115.855 22.3241 115.472 22.4369C114.324 22.7705 113.188 23.2215 112.084 23.7839C110.243 24.7205 108.494 25.9643 106.932 27.4789C105.991 28.3858 105.115 29.3788 104.304 30.444C104.034 30.7979 103.771 31.1598 103.515 31.5294C102.492 33.0096 101.585 34.6011 100.795 36.263C100.4 37.0947 100.032 37.9437 99.6922 38.8083C98.6741 41.4021 97.9155 44.1275 97.4774 46.8765C97.1702 48.7185 97.0551 50.5793 97.0827 52.4354C97.1029 53.8279 97.2039 55.2157 97.3635 56.5878C97.4174 57.0452 97.4774 57.5025 97.5435 57.9552C97.7644 59.3179 98.0568 60.6603 98.4061 61.9776C98.9892 64.1721 99.7314 66.2991 100.573 68.337C101.087 69.5587 101.633 70.7491 102.204 71.9051C103.347 74.2186 104.589 76.4005 105.863 78.4477C106.712 79.812 107.576 81.1183 108.434 82.362C108.649 82.6721 108.863 82.9791 109.076 83.283C109.503 83.8892 109.928 84.4813 110.348 85.0561C111.192 86.2089 112.016 87.3022 112.809 88.336C113.404 89.1129 113.983 89.8538 114.54 90.5603C115.283 91.5032 115.99 92.3819 116.651 93.1964C117.477 94.2145 118.232 95.1293 118.897 95.9359C119.566 96.7395 120.143 97.4396 120.619 98.0207C121.668 99.2989 122.232 100.007 122.232 100.007C122.232 100.007 122.185 99.9583 122.094 99.8643ZM255.072 73.8928C254.584 72.3781 253.926 70.912 253.116 69.5415C252.712 68.8554 252.27 68.1929 251.794 67.5601C251.318 66.9257 250.806 66.3226 250.261 65.7525C248.072 63.4813 245.391 61.8257 242.604 60.7684C241.906 60.5052 241.199 60.2781 240.488 60.087C239.777 59.8975 239.061 59.744 238.344 59.6265C237.985 59.567 237.626 59.5169 237.268 59.4761C236.549 59.3963 235.831 59.3509 235.117 59.343C234.76 59.3383 234.403 59.3446 234.048 59.3587C231.919 59.4636 229.835 59.8881 227.896 60.6243C227.25 60.8702 226.621 61.1506 226.011 61.467C224.724 62.1296 223.534 62.9581 222.484 63.9089C223.118 61.7066 223.62 59.8458 223.989 58.4314C224.463 56.6113 224.716 55.529 224.746 55.4005C224.833 55.0262 224.86 54.6471 224.831 54.2759C224.817 54.0911 224.789 53.9078 224.748 53.7277C224.664 53.369 224.528 53.0228 224.343 52.7033C224.066 52.224 223.68 51.8042 223.2 51.4815C223.154 51.4518 222.938 51.3093 222.493 51.0524C220.979 50.1768 216.814 47.9682 207.663 44.2623C207.124 44.0445 206.568 43.8221 205.995 43.5934C205.422 43.3647 204.831 43.1313 204.222 42.8932C203.612 42.6536 202.985 42.4108 202.339 42.1618C200.723 41.5384 198.991 40.8821 197.135 40.1929C194.907 39.3643 192.501 38.4887 189.902 37.5645C189.036 37.256 188.148 36.9427 187.239 36.6232C186.785 36.4634 186.324 36.3021 185.86 36.1408C177.48 33.218 170.774 31.0549 165.455 29.4557C164.569 29.1894 163.721 28.9372 162.91 28.7022C161.559 28.3075 160.311 27.9551 159.16 27.6387C158.93 27.5745 158.704 27.5134 158.481 27.4538C158.037 27.3316 157.607 27.2173 157.193 27.1077C156.571 26.9432 155.983 26.7912 155.427 26.6518C154.872 26.5109 154.349 26.3809 153.856 26.2634C150.738 25.5116 148.864 25.1795 147.897 25.0369C147.389 24.9617 147.131 24.9383 147.076 24.9336C146.884 24.9179 146.694 24.9179 146.505 24.932C146.317 24.9461 146.132 24.9743 145.951 25.0151C145.589 25.0981 145.242 25.2359 144.924 25.4192C144.286 25.7873 143.758 26.3448 143.428 27.0403C143.415 27.0669 143.382 27.1375 143.33 27.2502C143.278 27.3614 143.206 27.5165 143.117 27.7091C142.983 28.0005 142.809 28.3827 142.6 28.8463C142.182 29.7767 141.624 31.0392 140.966 32.5852C140.637 33.359 140.283 34.2032 139.909 35.1101C139.793 34.4115 139.632 33.7145 139.424 33.0284C139.217 32.3408 138.963 31.6641 138.666 31.0047C138.525 30.6915 138.375 30.3829 138.216 30.0775C137.58 28.8557 136.801 27.6982 135.9 26.6237C135.675 26.3559 135.443 26.0927 135.203 25.8342C134.724 25.3189 134.216 24.8255 133.682 24.3556C133.144 23.892 132.579 23.4534 131.99 23.043C130.222 21.8103 128.237 20.825 126.105 20.139C125.395 19.9134 124.667 19.7208 123.925 19.5641C123.555 19.4874 123.181 19.4185 122.803 19.3605C121.672 19.1851 120.516 19.0974 119.35 19.1115C118.572 19.1225 117.79 19.1773 117.009 19.2822C113.888 19.7114 110.828 20.9002 108.18 22.6639C106.185 23.9828 104.426 25.6024 102.892 27.3864C102.381 27.9817 101.894 28.5942 101.433 29.2207L100.78 30.1871L100.127 31.1519C99.9309 31.4824 99.7406 31.8177 99.5522 32.1529C99.3631 32.4896 99.1758 32.8248 98.9863 33.1616C98.5909 33.8163 98.2783 34.5541 97.9412 35.2652C97.7821 35.6176 97.6052 35.9841 97.4412 36.3428C97.3593 36.5229 97.2797 36.6999 97.2075 36.8722C97.1353 37.0445 97.0698 37.2122 97.0155 37.3704L96.6336 38.3681L96.2519 39.3643L96.1557 39.6133L96.0732 39.8389L96.0517 39.9079L96.0309 39.9768L95.8639 40.5328L95.5311 41.6433C95.4075 42.0083 95.2986 42.3795 95.2007 42.7539C95.0043 43.5026 94.8488 44.2639 94.6953 45.0251C94.6188 45.4057 94.5429 45.7863 94.4628 46.1654C94.1782 48.0857 93.9898 50.0264 93.9568 51.9655C93.9366 53.1278 93.9727 54.29 94.0779 55.4459C94.1905 56.5956 94.3404 57.7391 94.5319 58.8716C94.8519 60.7574 95.2881 62.6089 95.8639 64.3961C96.9983 67.9783 98.5016 71.3412 100.226 74.4786C100.916 75.7332 101.642 76.9519 102.392 78.1329C102.768 78.725 103.15 79.306 103.538 79.8778C104.308 81.0306 105.097 82.1474 105.899 83.236C106.3 83.7796 106.704 84.3152 107.11 84.8447C109.142 87.4902 111.231 89.9572 113.27 92.2957C114.092 93.2246 114.908 94.1331 115.715 95.0212C118.133 97.6871 120.453 100.178 122.528 102.546C123.9 104.125 125.183 105.643 126.208 107.11C126.46 107.47 126.698 107.84 126.911 108.196C127.017 108.374 127.117 108.548 127.21 108.717C127.302 108.885 127.386 109.046 127.461 109.2C127.487 109.262 127.519 109.323 127.547 109.386C127.576 109.449 127.603 109.511 127.634 109.573L127.683 109.665L127.732 109.756C127.761 109.848 127.785 109.97 127.812 110.077L127.966 110.727L127.967 110.729L127.973 110.824L127.983 110.965L127.994 111.106C128.023 111.48 128.053 111.85 128.082 112.213C128.087 112.483 128.068 112.741 128.052 112.998C128.047 113.084 128.04 113.17 128.038 113.257L128.016 113.766L127.924 114.242C127.855 114.553 127.821 114.873 127.737 115.166C127.653 115.46 127.555 115.741 127.446 116.01C127.337 116.278 127.216 116.535 127.087 116.781C126.828 117.271 126.536 117.714 126.229 118.12C126.066 118.319 125.9 118.505 125.732 118.682C124.554 119.918 123.266 120.648 122.337 121.059C122.204 121.121 122.078 121.176 121.96 121.226C121.603 121.373 121.312 121.469 121.104 121.539C120.982 121.577 120.89 121.607 120.828 121.626C120.746 121.646 120.703 121.657 120.703 121.657L120.665 121.666C120.241 121.774 119.893 122.039 119.671 122.384C119.56 122.558 119.48 122.75 119.439 122.955C119.396 123.161 119.393 123.377 119.433 123.594C119.579 124.392 120.267 124.951 121.046 124.968C121.158 124.97 121.271 124.96 121.385 124.94C121.385 124.94 121.397 124.937 121.418 124.934C121.441 124.929 121.475 124.923 121.52 124.915C121.573 124.902 121.641 124.887 121.721 124.869C121.802 124.851 121.895 124.83 122.002 124.805C122.194 124.755 122.432 124.694 122.709 124.609C122.847 124.569 122.996 124.522 123.154 124.468C123.311 124.415 123.478 124.356 123.654 124.287C123.915 124.188 124.2 124.074 124.505 123.939C124.607 123.895 124.71 123.848 124.816 123.798C125.134 123.651 125.469 123.48 125.817 123.283C126.862 122.691 128.021 121.851 129.158 120.618C129.879 119.779 130.569 118.77 131.113 117.6C131.19 118.148 131.267 118.681 131.345 119.204C131.352 119.254 131.359 119.304 131.367 119.354C131.488 120.17 131.61 120.96 131.731 121.715C128.641 123.616 125.435 126.95 124.056 131.216C123.128 134.084 123.134 136.979 124.052 139.753C122 141.338 119.559 143.708 118.226 146.737C116.757 150.077 116.783 153.286 117.354 155.82C115.727 157.125 114.001 159.122 113.013 162.101C111.894 165.474 111.991 168.406 112.31 170.373C110.37 173.077 107.326 178.365 108.115 184.033C108.021 184.073 107.925 184.112 107.835 184.146C107.788 184.165 107.744 184.182 107.698 184.199C107.58 184.245 107.465 184.287 107.356 184.328C107.307 184.345 107.259 184.364 107.212 184.38C107.107 184.417 107.008 184.452 106.913 184.484C106.877 184.497 106.838 184.511 106.803 184.522C106.678 184.564 106.561 184.604 106.456 184.636C103.82 184.184 101.252 185.098 99.1911 186.279C97.9547 186.987 96.8997 187.791 96.122 188.452C95.7843 188.447 95.4528 188.446 95.1266 188.449C92.1928 188.476 89.7313 188.845 87.6957 189.459C86.565 189.801 85.5652 190.216 84.689 190.689C84.3384 190.878 84.0074 191.077 83.696 191.284C83.3846 191.491 83.0921 191.705 82.8186 191.926C82.1345 192.481 81.5674 193.079 81.1085 193.702C81.0167 193.828 80.9298 193.953 80.8466 194.08C80.6802 194.334 80.5315 194.59 80.3993 194.851C80.3332 194.981 80.2708 195.111 80.2127 195.242C80.0971 195.504 79.998 195.768 79.9141 196.033C79.8303 196.298 79.763 196.563 79.7104 196.829C79.5972 197.402 79.5489 197.972 79.5629 198.533C79.5874 199.515 79.8028 200.472 80.1937 201.384C80.3608 201.775 80.5609 202.158 80.7909 202.53C81.1758 203.151 81.6457 203.743 82.1969 204.3C83.6287 205.751 85.6044 206.963 88.0249 207.807L121.874 219.613L155.723 231.417C156.986 231.857 158.214 232.134 159.39 232.274C166.045 238.454 174.475 246.671 183.377 256.9C182.836 258.168 183.697 261.039 187.872 265.762C190.747 269.015 194.801 272.762 197.893 274.176C200.195 275.229 202.155 275.453 203.686 275.212C205.218 274.969 206.368 274.288 207.507 273.609C218.029 267.344 224.638 259.415 232.647 248.697C236.131 244.035 238.344 240.567 233.313 231.171C231.486 227.758 220.802 219.782 217.592 219.01C216.755 218.808 216.345 218.993 216.171 219.4C208.953 213.297 197.619 203.559 192.242 198.11C185.272 191.046 181.39 182.967 181.018 174.747C180.941 173.031 181.009 171.119 181.081 169.094C181.35 161.536 181.685 152.13 174.88 143.089C173.921 141.816 172.992 140.6 172.103 139.449C172.249 139.321 172.396 139.191 172.546 139.057C172.562 139.043 172.577 139.029 172.594 139.015C172.824 138.811 173.061 138.6 173.301 138.385C173.342 138.349 173.38 138.313 173.421 138.277C173.638 138.083 173.86 137.881 174.085 137.679C174.153 137.618 174.218 137.558 174.287 137.496C174.501 137.303 174.721 137.101 174.942 136.899C175.024 136.824 175.103 136.753 175.184 136.678C175.388 136.492 175.598 136.297 175.807 136.105C175.911 136.008 176.014 135.914 176.12 135.815C176.356 135.596 176.599 135.369 176.841 135.142C176.922 135.066 176.999 134.996 177.08 134.919C177.407 134.612 177.739 134.299 178.075 133.979C178 134.293 177.938 134.604 177.888 134.911C177.738 135.835 177.697 136.728 177.729 137.557C177.757 137.93 177.797 138.287 177.849 138.628C178.054 140 178.431 141.145 178.841 142.084C179.148 142.787 179.474 143.374 179.759 143.854C180.045 144.341 180.313 144.724 180.531 145.02C180.604 145.119 180.67 145.207 180.73 145.287C180.867 145.457 180.97 145.586 181.04 145.672C181.069 145.706 181.092 145.733 181.107 145.75C181.122 145.766 181.13 145.775 181.13 145.775C181.49 146.186 182.015 146.383 182.53 146.342C182.84 146.317 183.145 146.208 183.41 146.006C183.778 145.725 183.998 145.321 184.055 144.897C184.083 144.684 184.071 144.466 184.017 144.254C183.962 144.043 183.866 143.839 183.725 143.656L183.705 143.628C183.705 143.628 183.698 143.62 183.685 143.603C183.672 143.586 183.653 143.561 183.627 143.526C183.608 143.5 183.586 143.467 183.558 143.426C183.531 143.387 183.5 143.34 183.464 143.288C183.306 143.042 183.058 142.669 182.797 142.145C182.257 141.116 181.611 139.471 181.577 137.424C181.596 136.597 181.711 135.712 182.004 134.803C182.071 134.593 182.145 134.383 182.232 134.172C182.291 134.031 182.363 133.893 182.438 133.754C182.513 133.614 182.591 133.475 182.661 133.331L182.886 132.9L183.185 132.49C183.288 132.352 183.385 132.209 183.484 132.067C183.583 131.926 183.685 131.783 183.799 131.644C183.924 131.512 184.052 131.373 184.178 131.238C184.305 131.103 184.429 130.97 184.557 130.832L184.748 130.624L184.781 130.588L184.813 130.554L184.815 130.552L185.339 130.139C185.426 130.073 185.52 129.993 185.601 129.938L185.792 129.855C185.918 129.799 186.039 129.738 186.159 129.67C186.467 129.525 186.826 129.373 187.214 129.227C187.408 129.153 187.609 129.081 187.814 129.012C188.02 128.943 188.229 128.876 188.44 128.813C189.298 128.558 190.213 128.333 191.172 128.123C192.13 127.913 193.131 127.72 194.159 127.528C194.676 127.434 195.199 127.341 195.73 127.25C197.323 126.975 198.979 126.71 200.688 126.436C202.967 126.069 205.341 125.69 207.785 125.258C208.395 125.145 209.01 125.029 209.629 124.91C212.107 124.434 214.653 123.9 217.241 123.253C219.184 122.769 221.149 122.219 223.128 121.585C228.403 119.928 233.78 117.592 238.765 114.232C239.078 114.024 239.387 113.811 239.694 113.592C240.308 113.153 240.911 112.694 241.503 112.218C242.094 111.74 242.675 111.245 243.245 110.735C244.099 109.967 244.927 109.164 245.731 108.334C246.265 107.774 246.775 107.193 247.267 106.595C247.759 105.997 248.229 105.379 248.683 104.75C248.909 104.435 249.131 104.115 249.349 103.794C250.002 102.829 250.618 101.836 251.2 100.828C251.373 100.48 251.55 100.135 251.727 99.7891C252.258 98.7522 252.782 97.7122 253.176 96.6204L253.606 95.5443L253.713 95.2749L253.819 95.0055L253.846 94.9382L253.873 94.8708L253.948 94.6437L254.028 94.3884L254.67 92.3521C254.839 91.876 254.977 91.2839 255.115 90.7028C255.16 90.5086 255.207 90.3159 255.254 90.1279C255.343 89.7442 255.442 89.3589 255.53 88.9751C255.617 88.5929 255.696 88.2092 255.744 87.8301C255.804 87.4495 255.866 87.0688 255.928 86.6898C255.989 86.3092 256.048 85.9286 256.1 85.5464L256.278 83.2235C256.335 81.6681 256.28 80.0924 256.089 78.5276C255.896 76.9628 255.567 75.4074 255.072 73.8928Z" fill="white"/>
<path d="M138.074 124.068C138.026 123.748 137.978 123.41 137.93 123.056C137.807 122.169 137.681 121.178 137.548 120.095C137.521 119.878 137.494 119.658 137.466 119.434C137.269 117.642 137.046 115.62 136.802 113.413C136.695 112.309 136.583 111.159 136.467 109.969C136.376 108.777 136.281 107.544 136.184 106.279C136.072 105.013 136.034 103.707 135.952 102.377C135.915 101.711 135.874 101.038 135.838 100.359C135.801 99.6797 135.769 98.9936 135.75 98.3013C135.715 97.6105 135.688 96.9119 135.666 96.2086C135.6 94.1019 135.585 91.9466 135.564 89.7679C135.605 87.5875 135.626 85.3821 135.719 83.1735C135.75 82.4374 135.789 81.7012 135.84 80.965C135.882 79.4911 135.98 78.0187 136.1 76.5557C136.219 75.0912 136.359 73.6345 136.486 72.1888C136.854 69.3114 137.177 66.4716 137.721 63.7618C137.937 62.3929 138.212 61.0662 138.5 59.7739C138.788 58.4801 139.089 57.2192 139.356 55.9834C139.51 55.3678 139.684 54.7648 139.859 54.1711C140.035 53.5775 140.212 52.9948 140.375 52.4184C140.635 51.5491 140.864 50.7174 141.118 49.9138C141.203 49.646 141.291 49.3813 141.383 49.1181C141.561 48.5918 141.735 48.078 141.907 47.5752C142.078 47.0724 142.246 46.5822 142.41 46.1044C142.575 45.6251 142.736 45.1599 142.893 44.7073C143.129 44.0275 143.356 43.3775 143.574 42.7603C144.084 41.3209 144.543 40.0553 144.945 38.9949C145.343 37.9329 145.667 37.0682 145.905 36.4339C146.007 36.1613 146.094 35.9311 146.163 35.7447C146.303 35.3735 146.376 35.1777 146.376 35.1777C146.376 35.1777 146.286 35.3671 146.119 35.7274C146.091 35.7869 146.061 35.8512 146.028 35.9217C145.739 36.5482 145.28 37.5554 144.695 38.8931C144.503 39.341 144.295 39.8234 144.075 40.3403C143.411 41.8926 142.626 43.7518 141.789 45.8742C141.417 46.8187 141.035 47.8149 140.648 48.8581C140.547 49.1165 140.45 49.3828 140.355 49.6523C140.071 50.4605 139.807 51.311 139.525 52.1537C139.434 52.4403 139.339 52.7269 139.243 53.0152C139.051 53.5931 138.854 54.1789 138.665 54.7789C138.57 55.078 138.478 55.3819 138.39 55.6889C138.235 56.3092 138.069 56.9389 137.901 57.5764C137.732 58.2139 137.561 58.8592 137.396 59.5123C137.148 60.4929 136.913 61.4922 136.718 62.5135C136.653 62.8534 136.592 63.1948 136.538 63.5394C136.103 65.5914 135.794 67.7153 135.496 69.8737C135.397 70.5927 135.299 71.3179 135.199 72.0431C135.127 72.7714 135.052 73.5029 134.978 74.2375C134.755 76.4398 134.541 78.664 134.452 80.8945C134.408 81.6369 134.375 82.381 134.352 83.1234C134.304 84.6099 134.29 86.0916 134.281 87.5656C134.276 88.3033 134.273 89.0379 134.267 89.7694C134.326 92.6969 134.374 95.5774 134.546 98.3592C134.607 99.7501 134.682 101.119 134.814 102.454C134.939 103.788 135.02 105.098 135.173 106.365C135.312 107.634 135.447 108.868 135.578 110.061C135.732 111.252 135.882 112.402 136.025 113.506C136.312 115.714 136.645 117.729 136.954 119.51C136.994 119.732 137.033 119.951 137.071 120.166C137.185 120.813 137.295 121.425 137.402 122.003C137.473 122.387 137.542 122.755 137.609 123.107C137.676 123.46 137.742 123.795 137.807 124.113C137.926 124.751 138.044 125.318 138.151 125.811C138.177 125.935 138.203 126.052 138.228 126.167C138.303 126.508 138.371 126.807 138.425 127.061C138.463 127.232 138.496 127.382 138.524 127.51C138.553 127.639 138.576 127.749 138.596 127.836C138.635 128.012 138.654 128.103 138.654 128.103C138.654 128.103 138.443 126.635 138.074 124.068Z" fill="white"/>
<path d="M170.812 288.921L108.614 219.02L92.119 213.388L170.812 288.921Z" fill="white"/>
<path d="M38.806 197.894C40.6925 200.036 42.7358 202.36 44.9398 204.775C47.1345 207.197 49.434 209.768 51.8712 212.371C54.3059 214.976 56.7778 217.71 59.369 220.411C61.9487 223.126 64.5699 225.88 67.1897 228.637C69.8445 231.361 72.4991 234.085 75.1126 236.764C77.7093 239.461 80.3524 242.031 82.8629 244.562C87.9128 249.598 92.688 254.24 96.836 258.165C105.102 266.043 110.875 271.042 110.875 271.042C110.875 271.042 106.097 265.083 98.5355 256.527C94.7701 252.235 90.312 247.287 85.4697 242.052C83.0341 239.447 80.5659 236.709 77.9701 234.012C75.3898 231.299 72.7686 228.545 70.1479 225.788C67.4925 223.066 64.8379 220.343 62.2235 217.663C59.6207 214.972 56.9824 212.399 54.4708 209.867C51.9619 207.334 49.4798 204.939 47.1408 202.653C44.8106 200.36 42.5679 198.231 40.4979 196.264C32.2329 188.386 26.4623 183.383 26.4623 183.383C26.4623 183.383 31.2438 189.338 38.806 197.894Z" fill="white"/>
<path d="M68.7438 237.697C67.1829 236.056 65.5978 234.39 64.0127 232.724C62.4077 231.077 60.8026 229.431 59.2214 227.81C57.6474 226.183 56.0518 224.627 54.5337 223.097C51.4795 220.05 48.5921 217.243 46.0843 214.871C41.0867 210.105 37.5969 207.081 37.5969 207.081C37.5969 207.081 40.4877 210.682 45.061 215.856C47.3391 218.451 50.0345 221.442 52.9617 224.61C54.4343 226.185 55.9292 227.838 57.4955 229.472C59.0556 231.112 60.6407 232.778 62.2242 234.447C63.8302 236.093 65.4346 237.74 67.0156 239.361C68.5862 240.989 70.1842 242.544 71.702 244.076C74.7557 247.12 77.6432 249.927 80.1512 252.301C85.1494 257.065 88.6406 260.088 88.6406 260.088C88.6406 260.088 85.7514 256.484 81.179 251.31C78.9017 248.715 76.207 245.723 73.2783 242.556C71.8065 240.982 70.3132 239.327 68.7438 237.697Z" fill="white"/>
<path d="M114.053 220.875L153.034 255.456L128.733 225.887L126.698 225.192L114.053 220.875Z" fill="white"/>
<path d="M223.656 112.472C226.013 111.838 228.399 111.127 230.771 110.277C230.862 110.246 230.952 110.21 231.042 110.179L218.526 97.4659C218.16 98.0401 217.802 98.6165 217.426 99.1906C217.092 99.6999 216.755 100.206 216.416 100.709C215.74 101.715 215.055 102.71 214.361 103.692C214.242 103.865 214.12 104.032 213.999 104.202L223.656 112.472Z" fill="white"/>
<path d="M239.912 119.187C238.154 119.906 236.345 120.574 234.472 121.176C234.316 121.227 234.152 121.274 233.993 121.324L285.101 165.083L239.912 119.187Z" fill="white"/>
<path d="M213.785 114.79C214.451 114.65 215.098 114.52 215.773 114.372C216.858 114.133 217.966 113.882 219.084 113.621L212.248 106.605C211.22 107.999 210.16 109.397 209.069 110.795L213.785 114.79Z" fill="white"/>
<defs>
<radialGradient id="paint0_radial" cx="0" cy="0" r="1" gradientUnits="userSpaceOnUse" gradientTransform="translate(151.5 151.5) rotate(90) scale(151.5)">
<stop stop-color="#083F83"/>
<stop offset="1" stop-color="#00142D"/>
</radialGradient>
</defs>
</svg>
