<svg viewBox="0 0 29 29" fill="none" xmlns="http://www.w3.org/2000/svg">
    <path d="M18.125 1.20831H10.875V3.62498H18.125V1.20831ZM13.2917 16.9166H15.7083V9.66665H13.2917V16.9166ZM22.9946 8.92956L24.7104 7.21373C24.1908 6.59748 23.6229 6.01748 23.0067 5.50998L21.2908 7.22581C19.4179 5.72748 17.0617 4.83331 14.5 4.83331C8.49458 4.83331 3.625 9.7029 3.625 15.7083C3.625 21.7137 8.4825 26.5833 14.5 26.5833C20.5175 26.5833 25.375 21.7137 25.375 15.7083C25.375 13.1466 24.4808 10.7904 22.9946 8.92956ZM14.5 24.1666C9.82375 24.1666 6.04167 20.3846 6.04167 15.7083C6.04167 11.0321 9.82375 7.24998 14.5 7.24998C19.1763 7.24998 22.9583 11.0321 22.9583 15.7083C22.9583 20.3846 19.1763 24.1666 14.5 24.1666Z" fill="white"></path>
</svg>