<svg width="70" height="70" viewBox="0 0 70 70" fill="none" xmlns="http://www.w3.org/2000/svg">
    <circle cx="35" cy="35" r="35" fill="#0A296E"></circle>
    <g clip-path="url(#clip0)">
        <path d="M41.932 35.784L42.064 34.596C45.892 32.88 48.4 29.184 48.4 24.96C48.4 24.168 47.74 23.64 47.08 23.64H44.044L44.176 22.584C44.308 21.792 43.648 21 42.856 21H27.544C26.752 21 26.092 21.66 26.224 22.584L26.356 23.64H23.32C22.66 23.64 22 24.168 22 24.96C22 29.184 24.508 32.88 28.204 34.596L28.336 35.784C28.468 36.444 28.996 36.84 29.656 36.84H32.56L29.92 40.8H27.94C27.544 40.8 27.28 41.064 27.28 41.46V46.74C27.28 47.136 27.544 47.4 27.94 47.4H42.46C42.856 47.4 43.12 47.136 43.12 46.74V41.46C43.12 41.064 42.856 40.8 42.46 40.8H40.48L37.84 36.84H40.744C41.272 36.84 41.932 36.312 41.932 35.784ZM43.516 26.28H45.628C45.232 28.26 44.176 29.976 42.724 31.164L43.516 26.28ZM24.772 26.28H26.884L27.676 31.164C26.224 29.976 25.036 28.26 24.772 26.28ZM37.84 32.88L35.2 31.032L32.56 32.88L33.88 29.58L31.24 27.6H34.012L35.2 24.828L36.388 27.6H39.16L36.52 29.316L37.84 32.88Z" fill="white"></path>
    </g>
    <defs>
        <clipPath id="clip0">
            <rect width="26.4" height="33" fill="white" transform="translate(22 21)"></rect>
        </clipPath>
    </defs>
</svg>