<svg width="70" height="70" viewBox="0 0 70 70" fill="none" xmlns="http://www.w3.org/2000/svg">
    <circle cx="35" cy="35" r="35" fill="#0A296E"></circle>
    <path d="M49.9363 17.7168H36.2012V26.7966C36.2012 28.2175 35.0483 29.3766 33.6275 29.3766H23.1454C21.7245 29.3766 20.5654 28.2175 20.5654 26.7966V17.7853C19.7241 18.0034 19.1072 18.7637 19.1072 19.6674V30.2616C19.1072 31.3334 19.9859 32.2121 21.064 32.2121H49.9363C51.0144 32.2121 51.8931 31.3334 51.8931 30.2616V19.6674C51.8931 18.5892 51.0144 17.7168 49.9363 17.7168ZM48.0356 28.6288H38.1892C37.8464 28.6288 37.566 28.3484 37.566 28.0056C37.566 27.6566 37.8464 27.3824 38.1892 27.3824H48.0356C48.3783 27.3824 48.6588 27.6566 48.6588 28.0056C48.6588 28.3484 48.3783 28.6288 48.0356 28.6288ZM37.566 24.9956C37.566 24.6466 37.8464 24.3724 38.1892 24.3724H45.144C45.4867 24.3724 45.7672 24.6466 45.7672 24.9956C45.7672 25.3383 45.4867 25.6188 45.144 25.6188H38.1892C37.8464 25.6188 37.566 25.3383 37.566 24.9956ZM48.0356 22.6026H38.1892C37.8464 22.6026 37.566 22.3221 37.566 21.9794C37.566 21.6366 37.8464 21.3562 38.1892 21.3562H48.0356C48.3783 21.3562 48.6588 21.6366 48.6588 21.9794C48.6588 22.3221 48.3783 22.6026 48.0356 22.6026Z" fill="white"></path>
    <path d="M49.9363 38.631H36.2012V47.7171C36.2012 49.1379 35.0483 50.2908 33.6275 50.2908H23.1454C21.7245 50.2908 20.5654 49.1379 20.5654 47.7171V38.6995C19.7241 38.9176 19.1072 39.6841 19.1072 40.5878V51.1757C19.1072 52.2538 19.9859 53.1326 21.064 53.1326H49.9363C51.0144 53.1326 51.8931 52.2538 51.8931 51.1757V40.5878C51.8931 39.5097 51.0144 38.631 49.9363 38.631ZM48.0356 49.5118H38.1892C37.8464 49.5118 37.566 49.2376 37.566 48.8886C37.566 48.5459 37.8464 48.2655 38.1892 48.2655H48.0356C48.3783 48.2655 48.6588 48.5459 48.6588 48.8886C48.6588 49.2376 48.3783 49.5118 48.0356 49.5118ZM37.566 45.8786C37.566 45.5359 37.8464 45.2554 38.1892 45.2554H45.144C45.4867 45.2554 45.7672 45.5359 45.7672 45.8786C45.7672 46.2214 45.4867 46.5018 45.144 46.5018H38.1892C37.8464 46.5018 37.566 46.2214 37.566 45.8786ZM48.0356 43.4918H38.1892C37.8464 43.4918 37.566 43.2114 37.566 42.8686C37.566 42.5259 37.8464 42.2454 38.1892 42.2454H48.0356C48.3783 42.2454 48.6588 42.5259 48.6588 42.8686C48.6588 43.2114 48.3783 43.4918 48.0356 43.4918Z" fill="white"></path>
    <path d="M33.6262 13.8674H23.1434C22.4113 13.8674 21.8123 14.4631 21.8123 15.1986V26.7995C21.8123 27.535 22.4113 28.1306 23.1434 28.1306H33.6262C34.3617 28.1306 34.9573 27.535 34.9573 26.7995V15.1986C34.9573 14.4631 34.3617 13.8674 33.6262 13.8674ZM31.2888 22.3155C30.9303 22.891 30.4358 23.3101 29.8047 23.5725L30.6724 24.5293C30.7512 24.6083 30.7907 24.7033 30.7907 24.8153C30.7972 24.9267 30.7577 25.0252 30.6724 25.1113C30.5869 25.1961 30.485 25.2392 30.3667 25.2392C30.2418 25.2392 30.1366 25.1867 30.0513 25.0812L28.9764 23.7995C28.812 23.826 28.6148 23.839 28.3847 23.839C27.6945 23.839 27.0898 23.688 26.5705 23.3856C26.0511 23.0832 25.6501 22.6657 25.3675 22.1333C25.0848 21.6004 24.9368 20.989 24.9239 20.2992C24.9368 19.6088 25.0848 18.9975 25.3675 18.4651C25.6501 17.9327 26.0511 17.5153 26.5705 17.2128C27.0898 16.9104 27.6945 16.7589 28.3847 16.7589C29.075 16.7589 29.6781 16.9104 30.1943 17.2128C30.7101 17.5153 31.1112 17.9345 31.3971 18.4698C31.6832 19.0057 31.8325 19.6153 31.8458 20.2992C31.8325 21.068 31.6469 21.7401 31.2888 22.3155Z" fill="white"></path>
    <path d="M29.7555 17.9522C29.3674 17.7158 28.9106 17.5972 28.3847 17.5972C27.8524 17.5972 27.3938 17.7158 27.0093 17.9522C26.6248 18.1892 26.3304 18.5111 26.1267 18.9185C25.9229 19.3265 25.821 19.7863 25.821 20.2992C25.821 20.8116 25.9229 21.272 26.1267 21.6794C26.3304 22.0874 26.6248 22.4093 27.0093 22.6457C27.3939 22.8827 27.8524 23.0006 28.3847 23.0006C28.9106 23.0006 29.3674 22.8827 29.7555 22.6457C30.1433 22.4093 30.4391 22.0874 30.6429 21.6794C30.8465 21.272 30.9485 20.8116 30.9485 20.2992C30.9485 19.7863 30.8465 19.3265 30.6429 18.9185C30.4391 18.5111 30.1433 18.1892 29.7555 17.9522Z" fill="white"></path>
    <path d="M27.0537 42.7736H29.716L28.3849 39.5691L27.0537 42.7736Z" fill="white"></path>
    <path d="M33.6262 34.7842H23.1434C22.4113 34.7842 21.8123 35.3799 21.8123 36.1154V47.7163C21.8123 48.4518 22.4113 49.0474 23.1434 49.0474H33.6262C34.3617 49.0474 34.9573 48.4518 34.9573 47.7163V36.1154C34.9573 35.3799 34.3617 34.7842 33.6262 34.7842ZM31.4465 45.2781C31.3643 45.3636 31.2575 45.4063 31.1261 45.4063C31.0339 45.4063 30.9501 45.3819 30.8746 45.3324C30.799 45.2831 30.7415 45.2159 30.702 45.1304L30.0612 43.592H26.7086L26.0676 45.1304C26.0283 45.2159 25.9706 45.2831 25.895 45.3324C25.8194 45.3819 25.7357 45.4063 25.6437 45.4063C25.5121 45.4063 25.4052 45.3636 25.3231 45.2781C25.2409 45.1929 25.1999 45.0877 25.1999 44.9627C25.1999 44.9102 25.2163 44.8445 25.2493 44.7655L27.7636 38.8295C27.8161 38.7112 27.8901 38.6142 27.9855 38.5385C28.0807 38.4631 28.1975 38.4253 28.3355 38.4253H28.4341C28.5722 38.4253 28.6888 38.4631 28.7842 38.5385C28.8794 38.6142 28.9534 38.7112 29.006 38.8295L31.5205 44.7655C31.5533 44.8445 31.5697 44.9102 31.5697 44.9627C31.5697 45.0877 31.5286 45.1929 31.4465 45.2781Z" fill="white"></path>
</svg>