<svg width="70" height="70" viewBox="0 0 70 70" fill="none" xmlns="http://www.w3.org/2000/svg">
    <circle cx="35" cy="35" r="35" fill="#0A296E"></circle>
    <g clip-path="url(#clip0)">
        <path d="M29.6 30.4C33.5765 30.4 36.8 27.1765 36.8 23.2C36.8 19.2235 33.5765 16 29.6 16C25.6236 16 22.4 19.2235 22.4 23.2C22.4 27.1765 25.6236 30.4 29.6 30.4Z" fill="white"></path>
        <path d="M31.58 44.8H17C17 37.78 22.58 32.2 29.6 32.2C31.76 32.2 33.74 32.74 35.54 33.64C33.02 35.98 30.68 40.48 31.58 44.8Z" fill="white"></path>
        <path d="M44 34C38.96 34 35 37.96 35 43C35 48.04 38.96 52 44 52C49.04 52 53 48.04 53 43C53 37.96 49.04 34 44 34ZM47.96 42.46L44.36 46.06C43.64 46.78 42.56 46.78 41.84 46.06L40.04 44.26C39.32 43.54 39.32 42.46 40.04 41.74C40.76 41.02 41.84 41.02 42.56 41.74L43.1 42.28L45.44 39.94C46.16 39.22 47.24 39.22 47.96 39.94C48.68 40.66 48.68 41.74 47.96 42.46Z" fill="white"></path>
    </g>
    <defs>
        <clipPath id="clip0">
            <rect width="36" height="45" fill="white" transform="translate(17 16)"></rect>
        </clipPath>
    </defs>
</svg>